<?xml version="1.0" standalone="no"?>
<!DOCTYPE svg PUBLIC "-//W3C//DTD SVG 20010904//EN"
 "http://www.w3.org/TR/2001/REC-SVG-20010904/DTD/svg10.dtd">
<svg version="1.0" xmlns="http://www.w3.org/2000/svg"
 width="312.000000pt" height="296.000000pt" viewBox="0 0 312.000000 296.000000"
 preserveAspectRatio="xMidYMid meet">

<g transform="translate(0.000000,296.000000) scale(0.100000,-0.100000)"
fill="red" stroke="none">
<path d="M1510 2933 c-26 -17 -197 -209 -216 -244 -6 -11 -19 -27 -28 -37 -9
-9 -74 -84 -144 -167 -226 -266 -303 -356 -549 -643 -270 -315 -279 -330 -244
-405 10 -23 43 -69 72 -103 130 -147 329 -384 329 -391 0 -4 32 -42 70 -83 38
-41 71 -77 72 -81 10 -26 632 -738 653 -747 34 -16 54 -15 91 6 27 14 454 500
454 516 0 3 164 197 365 430 200 234 369 435 375 445 17 33 12 91 -12 124 -12
18 -50 64 -85 103 -35 40 -63 76 -63 81 0 6 -27 39 -60 74 -33 35 -60 66 -60
68 0 3 -53 65 -315 370 -50 57 -106 123 -125 146 -123 148 -445 518 -467 535
-31 24 -79 26 -113 3z"/>
</g>
</svg>
