<?xml version="1.0" standalone="no"?>
<!DOCTYPE svg PUBLIC "-//W3C//DTD SVG 20010904//EN"
 "http://www.w3.org/TR/2001/REC-SVG-20010904/DTD/svg10.dtd">
<svg version="1.0" xmlns="http://www.w3.org/2000/svg"
 width="312.000000pt" height="296.000000pt" viewBox="0 0 312.000000 296.000000"
 preserveAspectRatio="xMidYMid meet">

<g transform="translate(0.000000,296.000000) scale(0.100000,-0.100000)"
fill="red" stroke="none">
<path d="M710 2809 c-143 -28 -151 -30 -235 -70 -105 -49 -222 -146 -289 -239
-46 -63 -96 -157 -96 -181 0 -10 -4 -19 -10 -19 -5 0 -10 -8 -10 -18 0 -10 -4
-22 -8 -27 -9 -11 -24 -72 -43 -172 -19 -103 -1 -338 32 -418 6 -16 13 -37 15
-45 10 -49 159 -322 205 -375 138 -160 308 -318 597 -553 18 -15 49 -44 69
-64 20 -21 40 -38 45 -38 5 0 106 -84 225 -187 119 -104 232 -202 252 -219 44
-38 74 -54 98 -54 23 0 73 22 73 33 0 4 6 7 13 7 6 0 41 29 77 65 36 35 69 65
74 65 5 0 41 29 80 63 39 35 123 108 187 163 605 518 746 653 855 820 86 133
122 215 171 394 22 77 21 301 -1 404 -29 136 -86 275 -139 337 -10 11 -17 23
-17 28 0 5 -7 11 -15 15 -8 3 -15 12 -15 20 0 19 -115 121 -159 142 -19 9 -57
30 -83 45 -27 16 -55 29 -62 29 -7 0 -27 7 -44 16 -17 8 -80 22 -139 31 -153
23 -274 3 -413 -67 -133 -67 -203 -120 -321 -241 -65 -68 -103 -99 -118 -99
-15 0 -42 21 -79 63 -126 139 -199 197 -322 257 -131 64 -159 74 -251 89 -76
13 -135 13 -199 0z"/>
</g>
</svg>
