<?xml version="1.0" standalone="no"?>
<!DOCTYPE svg PUBLIC "-//W3C//DTD SVG 20010904//EN"
 "http://www.w3.org/TR/2001/REC-SVG-20010904/DTD/svg10.dtd">
<svg version="1.0" xmlns="http://www.w3.org/2000/svg"
 width="312.000000pt" height="296.000000pt" viewBox="0 0 312.000000 296.000000"
 preserveAspectRatio="xMidYMid meet">

<g transform="translate(0.000000,296.000000) scale(0.100000,-0.100000)"
 stroke="none">
<path d="M1494 2917 c-23 -17 -169 -142 -325 -277 -388 -336 -452 -390 -496
-425 -121 -96 -247 -236 -318 -356 -27 -46 -49 -86 -48 -89 1 -3 -4 -12 -11
-20 -6 -8 -17 -27 -24 -42 -7 -16 -17 -38 -22 -50 -19 -44 -51 -184 -57 -253
-9 -115 33 -339 81 -428 6 -12 24 -41 39 -64 15 -24 27 -45 27 -48 0 -13 119
-145 132 -145 5 0 17 -8 28 -17 17 -17 129 -76 175 -93 127 -48 344 -47 437 1
10 5 22 9 27 9 21 0 170 92 226 139 83 72 104 68 84 -16 -6 -26 -15 -56 -20
-65 -5 -10 -9 -23 -9 -30 0 -18 -62 -183 -98 -260 -35 -75 -116 -177 -175
-219 -54 -38 -97 -79 -97 -93 1 -6 10 -22 21 -36 l21 -25 437 -3 c240 -2 455
0 479 3 30 4 47 14 59 31 23 36 6 64 -65 113 -69 46 -119 102 -168 184 -59
100 -119 264 -144 391 -16 81 -4 90 56 37 26 -22 58 -47 73 -54 14 -8 56 -33
93 -56 37 -22 74 -41 81 -41 7 0 17 -4 22 -9 39 -34 259 -48 370 -22 133 30
263 107 360 213 62 68 155 243 155 290 0 15 4 29 9 32 24 15 39 293 20 376 -7
30 -16 59 -21 65 -4 5 -8 17 -8 27 0 10 -4 26 -9 36 -5 9 -13 28 -18 42 -24
64 -99 206 -132 249 -105 140 -143 175 -861 796 -283 245 -270 235 -309 235
-25 0 -48 -10 -77 -33z"/>
</g>
</svg>
