<?xml version="1.0" standalone="no"?>
<!DOCTYPE svg PUBLIC "-//W3C//DTD SVG 20010904//EN"
 "http://www.w3.org/TR/2001/REC-SVG-20010904/DTD/svg10.dtd">
<svg version="1.0" xmlns="http://www.w3.org/2000/svg"
 width="312.000000pt" height="296.000000pt" viewBox="0 0 312.000000 296.000000"
 preserveAspectRatio="xMidYMid meet">

<g transform="translate(0.000000,296.000000) scale(0.100000,-0.100000)"
fill="#000000" stroke="none">
<path d="M1487 2940 c-194 -23 -354 -123 -465 -289 -107 -160 -140 -341 -96
-528 9 -37 55 -137 66 -141 4 -2 8 -11 8 -21 0 -9 13 -32 30 -51 16 -19 29
-43 30 -53 0 -17 -5 -18 -52 -12 -29 4 -63 11 -76 16 -67 26 -230 -3 -362 -63
-319 -146 -459 -543 -307 -872 61 -130 203 -268 327 -316 19 -7 39 -17 45 -22
5 -4 21 -8 35 -8 14 0 31 -5 38 -12 17 -17 277 -17 294 0 7 7 22 12 33 12 31
0 140 55 212 106 54 38 113 104 187 209 56 80 36 -98 -36 -320 -67 -206 -136
-310 -296 -443 -58 -49 -64 -71 -26 -101 26 -21 36 -21 485 -21 262 0 468 4
482 9 28 11 42 41 32 71 -3 10 -29 36 -58 56 -149 107 -237 249 -302 487 -13
51 -29 108 -35 127 -6 19 -13 62 -17 94 -5 53 -4 59 11 53 10 -4 19 -7 21 -7
2 0 12 -17 22 -37 9 -20 52 -72 94 -114 64 -65 92 -86 173 -124 52 -25 104
-45 114 -45 10 0 23 -5 30 -12 8 -8 54 -12 139 -12 108 1 138 4 193 24 125 44
201 90 281 169 149 149 217 351 185 550 -31 188 -127 344 -270 440 -102 68
-151 88 -289 120 -64 15 -108 14 -192 -4 -121 -26 -127 -20 -69 66 74 108 114
241 114 374 0 74 -27 198 -57 263 -87 189 -301 354 -488 377 -105 12 -122 13
-188 5z"/>
</g>
</svg>
